<svg id="Layer_1" data-name="Layer 1" xmlns="http://www.w3.org/2000/svg" viewBox="0 0 1080 1080">
  <g>
    <g>
      <path d="M171.247,540a55,55,0,0,0,55,55h16.845l-6.845,8.76-10,12.8-2.65,3.4A80,80,0,0,1,226.247,460H348.562l-19.535,25H226.247a55,55,0,0,0-55,55Z" fill="#231f20"/>
      <polygon points="386.252 460 386.252 620 280.662 620 287.507 611.24 297.507 598.44 300.192 595 361.252 595 361.252 500.605 298.572 580.83 287.502 595 267.972 620 236.252 620 236.787 619.31 236.792 619.31 255.612 595.215 255.782 595 305.752 531.04 341.722 485 361.252 460 386.252 460" fill="#231f20"/>
      <path d="M483.592,485A46.232,46.232,0,0,0,442.5,460H396.252V620h25V552.5H442.5A46.265,46.265,0,0,0,483.592,485ZM442.5,527.5H421.252V485H442.5a21.25,21.25,0,0,1,0,42.5Z" fill="#231f20"/>
      <path d="M523.753,506.25A21.251,21.251,0,0,0,545,527.5h10a46.25,46.25,0,1,1,0,92.5H431.252V595H555a21.25,21.25,0,1,0,0-42.5H545a46.048,46.048,0,0,1-25.891-7.92,46.6,46.6,0,0,1-12.4-12.38A46.24,46.24,0,0,1,545,460h56.25v25H545A21.251,21.251,0,0,0,523.753,506.25Z" fill="#231f20"/>
      <path d="M703.753,460V573.75a46.25,46.25,0,1,1-92.5,0V460h25V573.75a21.25,21.25,0,0,0,42.5,0V460Z" fill="#231f20"/>
      <polygon points="785.662 595 785.662 620 713.753 620 713.753 460 738.753 460 738.753 595 785.662 595" fill="#231f20"/>
      <path d="M933.677,536.57a80,80,0,0,0-159.914,2.14c0,.43-.01.86-.01,1.29s0,.865.01,1.295A80.011,80.011,0,0,0,930.542,562.5H903.957a55.014,55.014,0,0,1-50.2,32.5h-.031a55.014,55.014,0,0,1-53.54-42.5h132.6a79.7,79.7,0,0,0,.895-9.07q.075-1.7.076-3.43T933.677,536.57ZM800.182,527.5a55.014,55.014,0,0,1,53.54-42.5h.031a55.014,55.014,0,0,1,53.569,42.5Z" fill="#231f20"/>
    </g>
    <path d="M853.753,440H226.247a100,100,0,0,0-100,100v0a100,100,0,0,0,100,100H853.753a100.005,100.005,0,0,0,100-100v0A100,100,0,0,0,853.753,440Zm63.64,163.635A89.415,89.415,0,0,1,853.753,630H226.247a90,90,0,1,1,0-180H853.753a90,90,0,0,1,63.64,153.635Z" fill="#231f20"/>
  </g>
</svg>
